Coordinates
version=1
nRows=21
nColumns=19
inDegrees=yes

Units are S.I. units (second, meters, Newtons, ...)
If the header above contains a line with 'inDegrees', this indicates whether rotational values are in degrees (yes) or radians (no).

endheader
time	pelvis_tilt	pelvis_list	pelvis_rotation	pelvis_tx	pelvis_ty	pelvis_tz	hip_flexion_r	hip_adduction_r	hip_rotation_r	knee_angle_r	knee_angle_r_beta	ankle_angle_r	hip_flexion_l	hip_adduction_l	hip_rotation_l	knee_angle_l	knee_angle_l_beta	ankle_angle_l
     13.32666667	     -3.27791341	      6.55605176	     -2.16419219	      2.13641852	      1.01795341	      0.99986813	    -10.84782158	     -9.94380827	    -11.12616049	     49.34261199	      0.86119104	    -13.80880914	     23.40912226	      9.64447767	      0.67922939	     15.85684505	      0.27675416	      1.46321282
     13.33333333	     -3.31492996	      7.38383441	     -2.12959739	      2.13586887	      1.01341001	      0.99966073	     -9.35560830	    -10.71885918	     -9.36665101	     53.29449249	      0.93016437	    -12.52497975	     23.72079735	     10.43381298	     -0.60044451	     17.41085483	      0.30387674	      1.13227065
     13.34000000	     -3.26490092	      8.18854316	     -1.92779803	      2.13498378	      1.00875772	      0.99947909	     -7.93894233	    -11.33796792	     -7.74371750	     57.23310885	      0.99890619	    -11.29437764	     24.06117325	     11.24360594	     -1.65985222	     19.38475212	      0.33832775	      1.14726790
     13.34666667	     -3.24676664	      8.92166403	     -1.62064200	      2.13374964	      1.00398073	      0.99932670	     -6.43529086	    -11.76554520	     -6.16182655	     61.17264712	      1.06766410	    -10.18698709	     24.50891510	     12.00302257	     -2.49513204	     21.65938418	      0.37802757	      1.52688112
     13.35333333	     -3.51483166	      9.48541888	     -1.17522237	      2.13205770	      0.99876702	      0.99917699	     -4.54437100	    -11.94988550	     -4.71128592	     65.16115467	      1.13727669	     -9.17976607	     25.34750925	     12.60901237	     -3.05814892	     24.24513393	      0.42315741	      2.31237679
     13.36000000	     -3.74087768	     10.03519312	     -0.71818443	      2.13009947	      0.99366459	      0.99913157	     -2.64029621	    -12.05362182	     -3.28079634	     69.08979144	      1.20584434	     -8.31178237	     26.09957166	     13.23557492	     -3.38857321	     26.83630728	      0.46838192	      3.40839847
     13.36666667	     -4.06419564	     10.50943202	     -0.17833615	      2.12787529	      0.98853393	      0.99909947	     -0.58707597	    -12.05370611	     -1.97675775	     72.95512590	      1.27330715	     -7.59009574	     26.89763719	     13.84438616	     -3.44921394	     29.40159842	      0.51315470	      4.76561806
     13.37333333	     -4.45460537	     10.91826633	      0.42645942	      2.12541363	      0.98351399	      0.99905637	      1.58116551	    -11.97712792	     -0.78538176	     76.72170717	      1.33904640	     -6.98871708	     27.67147310	     14.45847791	     -3.26134820	     31.84217400	      0.55575078	      6.30989121
     13.38000000	     -4.90409088	     11.27031829	      1.05994171	      2.12276416	      0.97870649	      0.99903424	      3.85842184	    -11.84782590	      0.33008644	     80.35578644	      1.40247305	     -6.45379391	     28.39061160	     15.06265630	     -2.92385482	     34.09708929	      0.59510647	      7.91981525
     13.38666667	     -5.34439653	     11.61411597	      1.66671055	      2.12005711	      0.97428882	      0.99904024	      6.17775778	    -11.73249832	      1.41684798	     83.82356959	      1.46299728	     -6.05577103	     28.92452182	     15.68695242	     -2.49313992	     36.04724655	      0.62914314	      9.61962223
     13.39333333	     -5.81876786	     11.90710024	      2.27644327	      2.11730717	      0.97024239	      0.99903813	      8.56693888	    -11.59707624	      2.44719065	     87.09523906	      1.52009868	     -5.67382705	     29.34352490	     16.28278265	     -1.99741966	     37.74414845	      0.65875966	     11.24764530
     13.40000000	     -6.29537872	     12.17046818	      2.83576934	      2.11459138	      0.96667103	      0.99906692	     10.99604771	    -11.45946180	      3.47606131	     90.14286249	      1.57328975	     -5.30542067	     29.59232566	     16.83593069	     -1.50185204	     39.13801559	      0.68308723	     12.78421723
     13.40666667	     -6.71239147	     12.42049342	      3.33030871	      2.11202067	      0.96371791	      0.99912683	     13.37543979	    -11.34158025	      4.49747685	     92.92333577	      1.62181816	     -4.85263038	     29.58367826	     17.35245308	     -1.00921564	     40.19615764	      0.70155530	     14.19633748
     13.41333333	     -6.78117252	     12.69445502	      3.76705447	      2.10976186	      0.96167843	      0.99912202	     15.33776811	    -11.34896843	      5.37252380	     95.37389119	      1.66458842	     -4.46760744	     28.99995618	     17.86924224	     -0.52002812	     40.93994174	      0.71453678	     15.45301284
     13.42000000	     -7.40900950	     12.79195463	      4.12289796	      2.10748917	      0.95945822	      0.99914730	     18.02383334	    -11.15056129	      6.42497178	     97.65192372	      1.70434759	     -4.02838205	     28.94569077	     18.13202599	     -0.15758869	     41.53587190	      0.72493772	     16.57555575
     13.42666667	     -7.06408629	     12.80490842	      4.49761084	      2.10568700	      0.95911446	      0.99906127	     19.44802218	    -10.94951035	      7.02928685	     99.39710047	      1.73480667	     -3.58571294	     27.59428730	     18.36484317	      0.55181882	     41.81862980	      0.72987278	     17.39194713
     13.43333333	     -7.57144914	     13.15611567	      4.62003753	      2.10422581	      0.95802964	      0.99915620	     21.97260727	    -11.16074677	      8.13032291	    101.10200756	      1.76456291	     -2.90631137	     27.00933055	     18.75713533	      0.69274125	     41.68183543	      0.72748527	     18.31547848
     13.44000000	     -7.46192411	     13.02668273	      4.86079291	      2.10303610	      0.95839362	      0.99903145	     23.63272915	    -10.93618684	      8.65815177	    102.27888813	      1.78510335	     -2.25191407	     25.63691864	     18.75649607	      1.35661491	     41.51213590	      0.72452345	     19.08494028
     13.44666667	     -7.44184961	     12.93188882	      5.04008866	      2.10205445	      0.95908584	      0.99895780	     25.37392427	    -10.77311037	      9.19999014	    103.20225041	      1.80121907	     -1.54987627	     24.24363906	     18.74725885	      1.98120064	     41.10747110	      0.71746072	     19.66882385
     13.45333333	     -7.67546871	     13.14584552	      5.06083358	      2.10145984	      0.95988336	      0.99895348	     27.42667915	    -10.99116059	      9.96988977	    103.94226808	      1.81413481	     -0.79628344	     22.93510422	     18.96692393	      2.32618428	     40.27196556	      0.70287840	     20.07260306
     13.46000000	     -7.74691439	     12.84050159	      5.18522379	      2.10101798	      0.96141580	      0.99891266	     29.14782453	    -10.69231983	     10.26142182	    104.26898930	      1.81983717	     -0.03431547	     21.43016623	     18.70726911	      3.04471836	     39.51277099	      0.68962795	     20.43743207
